USFL
nRows=230
nColumns=2
inDegrees=yes
endheader
time	med_gas_r	
6.71976	 35.381085	
6.75302	 35.383603	
6.78629	 35.378926	
6.81956	 35.349141	
6.85282	 35.358167	
6.88609	 35.366002	
6.91935	 35.364858	
6.95262	 35.358775	
6.98589	 35.357788	
7.01915	 35.369325	
7.05242	 35.374725	
7.08569	 35.350750	
7.11895	 35.328834	
7.15222	 35.324506	
7.18548	 35.318397	
7.21875	 35.327972	
7.25202	 35.341892	
7.28528	 35.352318	
7.31855	 35.347314	
7.35181	 35.337591	
7.38508	 35.319147	
7.41835	 35.321411	
7.45161	 35.314581	
7.48488	 35.305927	
7.51815	 35.319959	
7.55141	 35.333134	
7.58468	 35.353623	
7.61794	 35.334053	
7.65121	 35.314949	
7.68448	 35.316314	
7.71774	 35.328240	
7.75101	 35.287581	
7.78427	 35.306061	
7.81754	 35.360954	
7.85081	 35.367650	
7.88407	 35.424686	
7.91734	 35.366755	
7.9506	 35.412537	
7.98387	 35.419965	
8.01714	 35.373380	
8.0504	 35.380390	
8.08367	 35.377767	
8.11694	 35.325708	
8.1502	 35.409497	
8.18347	 35.473273	
8.21673	 35.461735	
8.25	 35.424081	
8.28327	 35.409784	
8.31653	 35.383225	
8.3498	 35.358499	
8.38306	 35.239772	
8.41633	 35.217779	
8.4496	 35.215175	
8.48286	 35.092835	
8.51613	 35.152970	
8.5494	 35.213300	
8.58266	 35.346557	
8.61593	 35.522750	
8.64919	 35.470565	
8.68246	 35.540607	
8.71573	 35.582164	
8.74899	 35.596030	
8.78226	 35.746050	
8.81552	 35.996889	
8.84879	 35.987294	
8.88206	 35.969189	
8.91532	 35.875675	
8.94859	 35.810077	
8.98185	 35.852368	
9.01512	 35.967637	
9.04839	 31.972431	
9.08165	 31.766965	
9.11492	 31.826651	
9.14819	 31.818173	
9.18145	 31.811524	
9.21472	 31.804784	
9.24798	 31.784905	
9.28125	 30.966344	
9.31452	 28.359711	
9.34778	 28.227671	
9.38105	 28.172721	
9.41431	 28.088188	
9.44758	 28.032506	
9.48085	 28.039393	
9.51411	 27.951186	
9.54738	 27.835556	
9.58065	 24.527572	
9.61391	 24.566433	
9.64718	 24.665731	
9.68044	 24.895705	
9.71371	 24.750287	
9.74698	 24.851080	
9.78024	 24.709173	
9.81351	 24.666314	
9.84677	 24.898859	
9.88004	 24.816935	
9.91331	 24.899630	
9.94657	 24.974724	
9.97984	 24.811888	
10.0131	 24.835988	
10.0464	 24.989577	
10.0796	 25.122842	
10.1129	 25.298712	
10.1462	 25.255043	
10.1794	 25.085694	
10.2127	 25.154229	
10.246	 25.229123	
10.2792	 25.457420	
10.3125	 25.527511	
10.3458	 25.900439	
10.379	 26.235303	
10.4123	 26.320031	
10.4456	 26.322191	
10.4788	 26.290167	
10.5121	 26.321520	
10.5454	 26.459985	
10.5786	 26.528538	
10.6119	 26.616971	
10.6452	 29.034095	
10.6784	 28.956653	
10.7117	 28.978672	
10.745	 29.027045	
10.7782	 29.008542	
10.8115	 29.174097	
10.8448	 29.153993	
10.878	 29.235812	
10.9113	 31.660272	
10.9446	 31.614074	
10.9778	 31.693491	
11.0111	 31.669389	
11.0444	 31.526368	
11.0776	 31.527495	
11.1109	 31.531284	
11.1442	 31.494275	
11.1774	 31.433276	
11.2107	 31.297970	
11.244	 31.277556	
11.2772	 31.151920	
11.3105	 31.059377	
11.3437	 30.976614	
11.377	 30.916402	
11.4103	 30.904135	
11.4435	 30.902097	
11.4768	 30.906668	
11.5101	 30.898060	
11.5433	 30.915002	
11.5766	 30.882936	
11.6099	 30.889976	
11.6431	 30.871550	
11.6764	 30.826152	
11.7097	 30.824923	
11.7429	 30.816034	
11.7762	 30.797028	
11.8095	 30.768765	
11.8427	 30.766994	
11.876	 30.691032	
11.9093	 30.683324	
11.9425	 30.657910	
11.9758	 30.667849	
12.0091	 30.627313	
12.0423	 30.631739	
12.0756	 30.625862	
12.1089	 30.599284	
12.1421	 30.620928	
12.1754	 30.643604	
12.2087	 30.714687	
12.2419	 30.759700	
12.2752	 30.790032	
12.3085	 31.081977	
12.3417	 31.113757	
12.375	 31.209917	
12.4083	 31.302150	
12.4415	 31.290934	
12.4748	 31.476336	
12.5081	 31.570161	
12.5413	 31.570694	
12.5746	 31.549839	
12.6079	 31.580545	
12.6411	 31.522398	
12.6744	 31.474615	
12.7077	 31.433298	
12.7409	 31.446590	
12.7742	 31.486727	
12.8075	 31.466590	
12.8407	 31.427817	
12.874	 31.418043	
12.9073	 31.363274	
12.9405	 31.352644	
12.9738	 31.373641	
13.0071	 31.330278	
13.0403	 31.269198	
13.0736	 31.241736	
13.1069	 31.222601	
13.1401	 31.217318	
13.1734	 31.190348	
13.2067	 31.131476	
13.2399	 31.149059	
13.2732	 31.144457	
13.3065	 31.154077	
13.3397	 31.199338	
13.373	 31.159917	
13.4062	 31.057514	
13.4395	 31.003066	
13.4728	 30.922947	
13.506	 30.956483	
13.5393	 30.893516	
13.5726	 30.813623	
13.6058	 30.871586	
13.6391	 30.831182	
13.6724	 30.759421	
13.7056	 30.793722	
13.7389	 30.769017	
13.7722	 30.653456	
13.8054	 30.599576	
13.8387	 30.535620	
13.872	 30.519637	
13.9052	 30.473813	
13.9385	 30.502072	
13.9718	 30.562851	
14.005	 30.512534	
14.0383	 30.482438	
14.0716	 30.572530	
14.1048	 30.521345	
14.1381	 30.604364	
14.1714	 30.611943	
14.2046	 30.589408	
14.2379	 30.575723	
14.2712	 30.572182	
14.3044	 30.593408	
14.3377	 30.601693	
